<svg width="634" height="785" viewBox="0 0 634 785" fill="none" xmlns="http://www.w3.org/2000/svg">
<path d="M0 0C109.352 0 198 68.0403 198 151.972C198 235.903 109.352 303.942 0 303.942V0Z" fill="white"/>
<path d="M120.696 0C404.186 4.72384e-05 634 175.521 634 392.036C634 608.552 404.186 784.072 120.696 784.072C79.1246 784.072 38.7075 780.296 0 773.171V627.993C37.8606 637.387 78.1155 642.45 119.854 642.45C342.362 642.45 522.742 498.633 522.742 321.226C522.742 143.924 342.578 0.172603 120.252 0.000976562C120.4 0.000880319 120.548 1.20884e-07 120.696 0Z" fill="white"/>
<path d="M29.8955 2.82531e-05C221.31 0.000254773 376.482 121.779 376.482 272C376.482 422.221 221.31 544 29.8955 544C19.8242 544 9.85325 543.663 0 543.002V444.458C9.63384 445.304 19.4181 445.74 29.3262 445.74C179.566 445.74 301.36 345.958 301.36 222.87C301.36 99.8577 179.715 0.121992 29.6016 2.82531e-05C29.6993 -3.52668e-05 29.7977 2.81541e-05 29.8955 2.82531e-05Z" fill="white"/>
</svg>
